<?xml version="1.0" encoding="UTF-8"?>
<svg version="1.1" xmlns="http://www.w3.org/2000/svg" width="1280" height="1280">
<circle cx="635" cy="650" r="500" stroke="black" stroke-width="3" fill="black" />
<path d="M0 0 C0.7 0.17 1.4 0.35 2.12 0.53 C44.83 11.16 44.83 11.16 54.81 17.06 C55.54 17.48 56.26 17.89 57.01 18.32 C79.55 31.52 101.07 46.85 120.57 64.22 C122.86 66.23 125.22 68.17 127.57 70.11 C133.36 74.89 138.55 79.93 143.31 85.75 C141.56 91 136.97 93.09 132.31 95.75 C101.55 110.79 69.8 110.31 36.92 103.47 C31.02 102.29 25.09 101.31 19.16 100.33 C17.25 100.01 15.34 99.69 13.43 99.36 C1.2 97.32 -10.68 96.51 -23.06 96.5 C-24.19 96.5 -24.19 96.5 -25.35 96.5 C-37.35 96.51 -48.93 97.11 -60.69 99.75 C-61.49 99.93 -62.29 100.1 -63.11 100.29 C-72.95 102.53 -82.19 105.48 -91.39 109.61 C-95.01 110.86 -97.88 110.96 -101.69 110.75 C-101.94 111.36 -102.2 111.96 -102.46 112.59 C-105.04 117.13 -110.46 119.24 -115.12 121.19 C-119.74 123.21 -123.59 125.82 -127.69 128.75 C-128.28 129.17 -128.88 129.6 -129.49 130.04 C-140.93 138.25 -151.02 146.61 -159.31 158.13 C-159.77 158.67 -160.22 159.2 -160.69 159.75 C-161.35 159.75 -162.01 159.75 -162.69 159.75 C-163.05 160.77 -163.05 160.77 -163.42 161.8 C-164.95 165.36 -166.91 168.59 -168.94 171.88 C-172.3 177.38 -175.46 182.93 -178.4 188.68 C-180.07 191.37 -181.84 192.51 -184.88 193.38 C-194 194.59 -194 194.59 -197.69 192.75 C-199.78 186.46 -198.66 180.28 -197 174 C-196.82 173.31 -196.65 172.63 -196.47 171.92 C-194.48 164.51 -191.96 157.16 -187.69 150.75 C-187.03 150.75 -186.37 150.75 -185.69 150.75 C-185.35 149.79 -185.35 149.79 -185 148.81 C-177.24 130.71 -160.53 118.26 -142.74 110.56 C-135.88 107.85 -128.76 105.81 -121.69 103.75 C-124.04 101.4 -129.8 102.51 -132.94 102.5 C-157.21 102.51 -182.64 106.96 -203.05 121 C-205.69 122.75 -205.69 122.75 -207.69 122.75 C-208.02 123.74 -208.35 124.73 -208.69 125.75 C-211.69 127.75 -211.69 127.75 -214.69 127.75 C-214.94 128.33 -215.2 128.9 -215.46 129.5 C-216.82 132 -218.41 133.75 -220.38 135.81 C-231.35 148.02 -238.7 163.61 -241.69 179.75 C-241.97 181.21 -241.97 181.21 -242.25 182.71 C-242.75 186.27 -242.73 189.79 -242.72 193.38 C-242.73 195.21 -242.73 195.21 -242.74 197.07 C-242.75 199.62 -242.73 202.16 -242.68 204.7 C-242.79 213.69 -242.79 213.69 -245.25 216.58 C-247.34 217.92 -249.38 218.84 -251.69 219.75 C-253.02 220.44 -254.34 221.14 -255.66 221.86 C-257.02 222.55 -258.39 223.24 -259.75 223.94 C-273.04 230.85 -285 239.43 -296.69 248.75 C-297.65 249.51 -298.6 250.28 -299.59 251.06 C-305.81 256.09 -311.84 261.29 -317.69 266.75 C-318.5 267.51 -319.31 268.27 -320.15 269.05 C-326.51 275.19 -331.92 281.83 -337.24 288.86 C-338.71 290.78 -340.2 292.68 -341.7 294.57 C-350.17 305.41 -358.77 317.4 -362.69 330.75 C-356.8 330.14 -351.79 327.87 -346.38 325.62 C-314.16 312.77 -280.3 307.26 -245.69 307.75 C-243.96 310.75 -243.43 312.95 -243.38 316.4 C-243.37 317.31 -243.35 318.22 -243.33 319.17 C-243.32 320.63 -243.32 320.63 -243.31 322.13 C-243.29 323.14 -243.27 324.15 -243.26 325.2 C-243.2 328.42 -243.16 331.65 -243.12 334.88 C-243.08 338.11 -243.03 341.34 -242.98 344.58 C-242.95 346.59 -242.92 348.6 -242.9 350.61 C-242.89 351.52 -242.87 352.43 -242.86 353.36 C-242.85 354.16 -242.84 354.97 -242.83 355.79 C-242.81 357.83 -242.81 357.83 -241.69 359.75 C-240.27 359.75 -240.27 359.75 -238.82 359.76 C-215.82 359.84 -192.82 359.93 -169.82 360.04 C-158.7 360.09 -147.57 360.13 -136.45 360.17 C-126.76 360.2 -117.07 360.24 -107.38 360.29 C-102.24 360.32 -97.11 360.34 -91.98 360.35 C-87.15 360.37 -82.32 360.39 -77.49 360.42 C-75.72 360.43 -73.94 360.43 -72.16 360.43 C-69.75 360.44 -67.33 360.45 -64.91 360.47 C-64.2 360.47 -63.49 360.47 -62.76 360.47 C-57.92 360.52 -57.92 360.52 -55.69 362.75 C-55.44 365 -55.44 365 -55.45 367.85 C-55.44 369.47 -55.44 369.47 -55.44 371.12 C-55.45 372.31 -55.45 373.5 -55.46 374.73 C-55.46 375.98 -55.46 377.22 -55.46 378.51 C-55.46 381.94 -55.47 385.37 -55.48 388.8 C-55.5 392.38 -55.5 395.96 -55.5 399.55 C-55.51 406.33 -55.52 413.12 -55.54 419.9 C-55.57 427.63 -55.58 435.35 -55.59 443.08 C-55.61 458.97 -55.64 474.86 -55.69 490.75 C-57.12 490.76 -57.12 490.76 -58.59 490.76 C-81.86 490.87 -105.12 490.97 -128.39 491.09 C-139.64 491.14 -150.89 491.2 -162.14 491.25 C-171.95 491.29 -181.75 491.34 -191.55 491.39 C-196.75 491.41 -201.94 491.44 -207.14 491.46 C-212.02 491.48 -216.9 491.5 -221.78 491.53 C-223.58 491.54 -225.38 491.55 -227.18 491.55 C-229.62 491.56 -232.06 491.58 -234.51 491.59 C-235.59 491.59 -235.59 491.59 -236.69 491.59 C-239.97 491.34 -239.97 491.34 -242.69 492.75 C-242.78 494.1 -242.81 495.46 -242.81 496.82 C-242.82 497.7 -242.82 498.58 -242.82 499.49 C-242.82 500.47 -242.82 501.45 -242.81 502.45 C-242.82 503.49 -242.82 504.52 -242.82 505.58 C-242.82 509.07 -242.82 512.56 -242.82 516.05 C-242.82 518.54 -242.82 521.03 -242.82 523.52 C-242.83 529.6 -242.83 535.68 -242.82 541.77 C-242.82 546.72 -242.82 551.67 -242.82 556.62 C-242.82 557.68 -242.82 557.68 -242.82 558.76 C-242.82 560.19 -242.82 561.62 -242.82 563.05 C-242.83 576.5 -242.82 589.95 -242.82 603.4 C-242.81 614.91 -242.81 626.42 -242.82 637.92 C-242.82 651.29 -242.83 664.66 -242.82 678.04 C-242.82 679.47 -242.82 680.9 -242.82 682.33 C-242.82 683.04 -242.82 683.74 -242.82 684.47 C-242.82 689.4 -242.82 694.33 -242.82 699.26 C-242.83 705.93 -242.82 712.6 -242.82 719.27 C-242.82 721.7 -242.82 724.14 -242.82 726.57 C-242.83 737.64 -242.79 748.7 -242.27 759.75 C-242.23 760.53 -242.2 761.3 -242.16 762.1 C-241.59 772.72 -239.61 783.23 -237.15 793.56 C-236.55 796.38 -236.16 799.21 -235.75 802.06 C-234.94 807.56 -233.74 812.84 -232.27 818.19 C-231.69 820.75 -231.69 820.75 -231.69 824.75 C-230.88 824.96 -230.08 825.16 -229.25 825.38 C-227.98 826.06 -227.98 826.06 -226.69 826.75 C-225.88 829.88 -225.88 829.88 -225.69 832.75 C-224.7 833.08 -223.71 833.41 -222.69 833.75 C-222.69 835.73 -222.69 837.71 -222.69 839.75 C-223.35 839.75 -224.01 839.75 -224.69 839.75 C-224.78 844.22 -224.54 848.36 -223.69 852.75 C-232.79 853.26 -241.23 851.71 -250.06 849.75 C-250.78 849.59 -251.49 849.44 -252.23 849.28 C-288.78 841.31 -324.09 829.97 -357.44 812.89 C-363.74 809.68 -370.14 806.7 -376.53 803.69 C-392.14 796.29 -392.14 796.29 -395.69 792.75 C-396.77 789.62 -396.81 786.68 -396.81 783.39 C-396.82 782.29 -396.82 781.19 -396.82 780.07 C-396.82 778.86 -396.82 777.65 -396.82 776.41 C-396.82 775.12 -396.82 773.84 -396.82 772.51 C-396.83 768.92 -396.82 765.34 -396.82 761.75 C-396.82 757.85 -396.82 753.96 -396.83 750.06 C-396.83 743.23 -396.83 736.4 -396.83 729.56 C-396.83 719.4 -396.84 709.24 -396.84 699.08 C-396.85 679.87 -396.85 660.67 -396.85 641.47 C-396.86 626.64 -396.86 611.81 -396.86 596.98 C-396.86 592.72 -396.86 588.46 -396.86 584.19 C-396.86 583.13 -396.86 582.07 -396.86 580.98 C-396.87 551.16 -396.87 521.33 -396.87 491.51 C-396.87 490.38 -396.87 489.26 -396.87 488.1 C-396.87 482.4 -396.87 476.69 -396.87 470.99 C-396.87 469.86 -396.87 468.73 -396.87 467.56 C-396.87 465.27 -396.87 462.98 -396.87 460.69 C-396.87 425.05 -396.88 389.41 -396.89 353.77 C-396.91 313.75 -396.92 273.73 -396.92 233.71 C-396.92 229.45 -396.92 225.18 -396.92 220.92 C-396.92 219.87 -396.92 218.82 -396.92 217.73 C-396.92 200.81 -396.92 183.89 -396.93 166.97 C-396.94 149.97 -396.94 132.98 -396.93 115.98 C-396.93 105.87 -396.93 95.77 -396.94 85.66 C-396.95 78.92 -396.95 72.17 -396.94 65.43 C-396.94 61.58 -396.93 57.73 -396.94 53.89 C-396.95 49.75 -396.94 45.61 -396.94 41.47 C-396.94 40.27 -396.95 39.07 -396.95 37.83 C-396.93 32.11 -396.82 27.1 -394.69 21.75 C-392.31 19.55 -392.31 19.55 -389.12 17.62 C-388.53 17.26 -387.94 16.9 -387.33 16.53 C-381.05 12.8 -374.58 9.4 -368.12 6 C-367.1 5.46 -366.07 4.91 -365.01 4.35 C-358.77 1.13 -352.48 -1.6 -345.89 -4.04 C-342.79 -5.21 -339.76 -6.48 -336.71 -7.79 C-309.6 -19.16 -279.84 -25.21 -250.69 -28.25 C-249.71 -28.35 -248.73 -28.46 -247.72 -28.56 C-164.51 -36.88 -80.37 -20.04 0 0 Z M-226.69 838.75 C-225.69 842.75 -225.69 842.75 -225.69 842.75 Z " fill="#FBFBFB" transform="translate(807.6875,234.25)"/>
<path d="M0 0 C2.53 2.53 2.29 3.49 2.41 6.99 C2.45 8.04 2.48 9.09 2.52 10.17 C2.57 11.9 2.57 11.9 2.61 13.66 C2.65 14.86 2.69 16.07 2.73 17.31 C3.12 30.98 3.16 44.66 3.17 58.34 C3.18 62.12 3.19 65.91 3.2 69.69 C3.22 78.76 3.23 87.83 3.24 96.89 C3.24 100.32 3.24 103.74 3.25 107.17 C3.27 122.3 3.28 137.43 3.29 152.55 C3.29 156.23 3.29 159.91 3.3 163.58 C3.3 164.49 3.3 165.41 3.3 166.35 C3.3 181.21 3.33 196.08 3.36 210.94 C3.4 226.25 3.41 241.56 3.42 256.86 C3.42 265.44 3.43 274.02 3.45 282.59 C3.48 289.88 3.48 297.16 3.47 304.44 C3.47 308.16 3.47 311.87 3.49 315.58 C3.51 319.61 3.5 323.63 3.49 327.65 C3.5 328.83 3.51 330 3.52 331.21 C3.46 339.03 2.41 342.51 -3.07 348.12 C-4.09 348.99 -4.09 348.99 -5.12 349.88 C-5.81 350.47 -6.49 351.07 -7.2 351.68 C-9 353 -9 353 -11 353 C-11.18 353.67 -11.36 354.35 -11.55 355.04 C-13.63 359.29 -16.8 362.07 -20.19 365.31 C-21.56 366.66 -22.94 368.01 -24.31 369.36 C-25.29 370.32 -25.29 370.32 -26.28 371.29 C-29.38 374.37 -32.19 377.66 -35 381 C-35.88 382.01 -36.77 383.02 -37.66 384.03 C-43.52 390.73 -49.07 397.59 -54.36 404.76 C-57.59 409.13 -60.9 413.44 -64.27 417.72 C-71.24 426.57 -77.77 435.61 -84 445 C-84.61 445.92 -85.22 446.83 -85.85 447.78 C-98.72 467.1 -111.07 486.73 -122.52 506.92 C-122.89 507.57 -123.26 508.22 -123.63 508.89 C-125.41 512.02 -127.17 515.15 -128.91 518.29 C-129.54 519.41 -130.16 520.52 -130.8 521.66 C-131.62 523.14 -131.62 523.14 -132.46 524.65 C-134 527 -134 527 -137 529 C-141.01 525.3 -143.34 522.55 -144.35 517.14 C-145.21 512.54 -146.52 508.75 -148.62 504.56 C-163.87 472.34 -171.53 430.09 -172.82 394.68 C-172.7 392.08 -172.7 392.08 -174 391 C-174.24 388.47 -174.42 385.96 -174.55 383.42 C-174.59 382.62 -174.63 381.83 -174.67 381 C-175.18 370.42 -175.24 359.84 -175.25 349.25 C-175.25 348.18 -175.25 347.11 -175.26 346 C-175.26 328.47 -174.4 311.37 -172 294 C-171.76 292.1 -171.76 292.1 -171.52 290.17 C-171.36 288.9 -171.19 287.63 -171.02 286.32 C-170.88 285.16 -170.73 284 -170.58 282.81 C-170 280 -170 280 -168 278 C-167.59 276.03 -167.59 276.03 -167.46 273.71 C-163.52 230.07 -145.88 186.61 -126 148 C-125.14 146.25 -124.29 144.5 -123.44 142.75 C-116.4 128.72 -107.43 115.95 -98.35 103.21 C-95.63 99.38 -93.05 95.53 -90.62 91.5 C-86.02 84.1 -80.22 77.59 -74.62 70.94 C-72.56 68.47 -70.56 65.96 -68.56 63.44 C-56.17 48.29 -42.09 33.36 -26.72 21.21 C-23.65 18.72 -20.77 16.07 -17.88 13.38 C-5.43 1.81 -5.43 1.81 0 0 Z " fill="#52ABF8" transform="translate(362,289)"/>
<path d="M0 0 C3.13 1.33 4.13 3.42 5.93 6.27 C6.97 7.91 6.97 7.91 8.04 9.58 C8.72 10.68 9.41 11.77 10.11 12.9 C10.7 13.82 11.3 14.74 11.91 15.68 C13.66 18.41 15.39 21.15 17.11 23.9 C17.74 24.89 18.37 25.89 19.01 26.91 C23.91 34.77 28.53 42.76 32.99 50.87 C33.71 52.17 34.43 53.47 35.16 54.77 C40.39 64.1 45.02 73.71 49.49 83.42 C50.1 84.76 50.72 86.09 51.34 87.41 C55.02 95.26 57.77 102.83 59.68 111.29 C60.8 116.1 62.52 120.01 64.86 124.32 C67.53 129.83 68.94 135.82 70.55 141.71 C70.74 142.4 70.93 143.09 71.13 143.8 C76.41 162.86 80.75 182.25 83.11 201.9 C83.2 202.63 83.3 203.37 83.39 204.12 C85.68 223.32 85.38 242.58 85.31 261.88 C85.3 265.44 85.3 269 85.3 272.56 C85.3 276.01 85.29 279.45 85.29 282.9 C85.28 284.54 85.28 286.18 85.28 287.81 C85.28 290.08 85.27 292.36 85.26 294.63 C85.25 295.91 85.25 297.2 85.25 298.53 C85.13 301.46 84.77 304.05 84.11 306.9 C83.97 308.33 83.85 309.77 83.75 311.21 C80.36 357.65 67.52 404.13 47.11 445.9 C46.61 446.95 46.11 447.99 45.59 449.07 C28.73 484.05 8.22 517.2 -16.89 546.9 C-17.77 547.96 -18.65 549.03 -19.53 550.1 C-24.56 556.16 -29.71 561.92 -35.4 567.39 C-37.41 569.42 -39.27 571.47 -41.14 573.63 C-45.12 578.22 -49.34 582.54 -53.64 586.84 C-54.83 588.02 -54.83 588.02 -56.04 589.24 C-61.73 594.87 -67.56 600 -73.89 604.9 C-75.6 606.33 -77.3 607.77 -79.01 609.21 C-101 627.12 -119.83 637.29 -148.89 634.9 C-153.38 634.12 -157.06 632.37 -160.89 629.9 C-161.83 629.29 -162.78 628.69 -163.75 628.07 C-166.58 626.12 -169.24 624.08 -171.89 621.9 C-173.02 620.97 -173.02 620.97 -174.18 620.03 C-182.15 612.84 -185.83 602.44 -186.89 591.9 C-187.41 578.95 -187.41 578.95 -185.89 575.9 C-183.86 575.06 -181.79 574.31 -179.71 573.61 C-178.4 573.17 -177.1 572.72 -175.79 572.27 C-175.1 572.04 -174.42 571.8 -173.71 571.56 C-134.14 558.09 -97.75 538.16 -66.46 510.27 C-65.34 509.3 -64.22 508.35 -63.08 507.41 C-59.48 504.43 -56.66 501.59 -54.07 497.65 C-52.43 495.16 -51 493.01 -48.89 490.9 C-48.27 490.79 -47.65 490.67 -47.01 490.55 C-43.96 489.61 -42.91 487.89 -40.95 485.4 C-40.17 484.4 -39.38 483.41 -38.57 482.38 C-38.15 481.83 -37.72 481.27 -37.28 480.7 C-35.78 478.76 -34.27 476.84 -32.76 474.91 C-12.83 449.34 4.18 420.91 14.11 389.9 C14.35 389.18 14.58 388.46 14.82 387.72 C21.07 368.03 24.18 347.13 24.35 326.49 C24.36 325.54 24.37 324.58 24.38 323.6 C24.55 303.06 24.58 283.05 20.11 262.9 C19.92 262.01 19.73 261.13 19.53 260.22 C13.27 232.38 0.4 207.5 -16.89 184.9 C-17.59 183.97 -18.29 183.03 -19.02 182.07 C-22.29 177.29 -22.29 177.29 -26.9 174.14 C-28.89 172.9 -28.89 172.9 -29.89 170.29 C-30.24 168.66 -30.24 168.66 -30.6 166.99 C-31.01 165.18 -31.01 165.18 -31.42 163.33 C-31.56 162.68 -31.7 162.04 -31.84 161.38 C-32.55 158.05 -33.33 154.73 -34.1 151.41 C-34.25 150.75 -34.41 150.1 -34.56 149.42 C-38.87 131.01 -46.29 113.18 -55.89 96.9 C-56.47 95.91 -57.05 94.92 -57.65 93.91 C-62.27 86.24 -67.26 78.87 -72.37 71.53 C-72.79 70.91 -73.21 70.3 -73.65 69.66 C-74.46 68.51 -75.3 67.38 -76.17 66.27 C-78.1 63.74 -78.95 62.45 -78.56 59.23 C-76.3 56.09 -73.61 54.99 -70.14 53.59 C-68.77 52.99 -67.41 52.39 -66.04 51.78 C-65 51.32 -65 51.32 -63.94 50.85 C-50.34 44.56 -38.56 35.73 -27.7 25.52 C-24.67 22.7 -21.57 20 -18.41 17.34 C-16.64 15.78 -16.64 15.78 -14.89 12.9 C-14.23 12.9 -13.57 12.9 -12.89 12.9 C-12.63 12.32 -12.37 11.75 -12.11 11.16 C-10.78 8.69 -9.24 6.81 -7.39 4.71 C-6.78 4.02 -6.17 3.32 -5.54 2.61 C-3.66 0.67 -2.73 -0.15 0 0 Z " fill="#52ABF8" transform="translate(1001.88671875,379.1015625)"/>
<path d="M0 0 C10.58 0.47 19.79 7.95 28.31 13.69 C29.22 14.3 30.14 14.91 31.08 15.55 C49.91 28.32 66.81 43.14 81 61 C81.45 61.56 81.9 62.12 82.37 62.7 C89.53 71.68 95.21 81.31 100.67 91.41 C101.19 92.36 101.71 93.32 102.25 94.3 C102.71 95.16 103.17 96.02 103.64 96.9 C104.98 99.27 104.98 99.27 108 101 C114.04 101.12 116.72 98.85 120.95 95.01 C124.1 91.92 126.79 88.59 129.44 85.06 C130 84.32 130.55 83.58 131.13 82.81 C145.83 62.86 153.63 40.28 159.43 16.36 C160.2 13.19 160.97 10.09 162 7 C162.66 6.67 163.32 6.34 164 6 C164.83 13.09 165.18 20.09 165.24 27.22 C165.25 28.27 165.26 29.32 165.27 30.4 C165.59 73.46 165.59 73.46 161 93 C160.81 93.85 160.63 94.7 160.43 95.58 C157.78 107.5 153.79 118.79 149 130 C148.71 130.69 148.42 131.39 148.11 132.1 C138.5 154.6 124.45 173.89 107.98 191.83 C106.07 193.92 104.22 196.04 102.38 198.19 C95.87 205.62 88.74 211.87 81 218 C79.99 218.81 78.97 219.61 77.93 220.45 C3.88 278.82 -89.51 284.38 -192 277 C-191.41 275.15 -191.41 275.15 -190 273 C-187.14 271.71 -187.14 271.71 -183.46 270.59 C-182.1 270.16 -180.73 269.73 -179.36 269.3 C-178.64 269.08 -177.92 268.85 -177.17 268.63 C-156.17 262.16 -136.13 253.88 -117 243 C-115.55 242.2 -115.55 242.2 -114.06 241.38 C-95.52 230.9 -78.56 218.2 -62.48 204.28 C-61.13 203.12 -59.78 201.96 -58.42 200.8 C-45.93 189.9 -35.65 177.42 -26 164 C-25.55 163.39 -25.1 162.77 -24.64 162.14 C-21.64 158 -19.13 153.78 -16.73 149.25 C-15.47 146.89 -14.19 144.55 -12.86 142.21 C-1.06 121.1 6.07 97.28 6.2 72.99 C6.21 72.15 6.22 71.3 6.22 70.44 C6.24 67.73 6.25 65.02 6.25 62.31 C6.25 61.39 6.25 60.47 6.25 59.52 C6.24 46.13 5.86 33.13 3 20 C2.73 18.74 2.73 18.74 2.45 17.45 C1.72 14.13 0.99 10.81 0.18 7.5 C-1.1 2.2 -1.1 2.2 0 0 Z " fill="#D4D1CC" transform="translate(823,653)"/>
<path d="M0 0 C-2.05 2.25 -3.01 3 -6 4 C-6.27 4.62 -6.54 5.24 -6.81 5.88 C-8.52 8.92 -10.87 9.64 -14 11 C-13.67 11.66 -13.34 12.32 -13 13 C-15.63 14.67 -18.25 16.34 -20.88 18.01 C-22.8 19.24 -24.72 20.48 -26.62 21.74 C-44.89 33.8 -66.74 42.93 -88.81 44.38 C-94.23 44.83 -99.17 46.45 -104.31 48.16 C-107 49 -107 49 -109 49 C-110 52.44 -110.42 55.42 -110 59 C-107.58 62.92 -104.34 65.86 -101 69 C-99.47 70.5 -97.95 72.01 -96.43 73.52 C-95 74.94 -93.54 76.35 -92.09 77.75 C-90 80 -90 80 -90 82 C-89.16 82.37 -89.16 82.37 -88.3 82.74 C-85.56 84.24 -83.54 86.07 -81.25 88.19 C-78.22 90.97 -75.19 93.71 -72.06 96.38 C-64.45 103.05 -57.28 109.89 -51.72 118.4 C-50.11 120.84 -48.42 123.21 -46.7 125.58 C-24.68 157 -13.85 194.96 -20.31 233.06 C-21.32 238.53 -22.64 243.89 -24.45 249.15 C-25.14 251.16 -25.14 251.16 -25 254 C-25.66 254 -26.32 254 -27 254 C-27.1 254.85 -27.2 255.7 -27.31 256.57 C-28.07 260.36 -29.39 263.39 -31.06 266.88 C-31.61 268.03 -32.16 269.18 -32.72 270.37 C-33.35 271.67 -33.35 271.67 -34 273 C-34.66 273 -35.32 273 -36 273 C-37.98 269.69 -38.25 267.17 -38.27 263.34 C-38.3 261.68 -38.3 261.68 -38.34 259.99 C-38.36 257.7 -38.38 255.4 -38.39 253.1 C-38.85 231.02 -51.99 212.14 -67.43 197.22 C-71.64 193.59 -76.17 190.74 -81 188 C-81.64 187.61 -82.28 187.22 -82.95 186.82 C-89.42 183.19 -96.84 181.75 -104 180 C-103.44 181.58 -103.44 181.58 -102.86 183.19 C-102.07 185.43 -101.28 187.67 -100.5 189.91 C-99.24 193.55 -97.95 197.13 -96.49 200.7 C-92.17 211.75 -92.48 222.28 -93 234 C-99.15 230.75 -102.15 225.85 -105.94 220.19 C-110.1 214.04 -114.7 208.32 -119.48 202.65 C-122.84 198.62 -125.53 194.63 -128 190 C-128.66 190 -129.32 190 -130 190 C-130.25 189.22 -130.5 188.43 -130.75 187.62 C-132.24 184.49 -133 184.49 -136 183 C-137.46 181.72 -138.88 180.38 -140.25 179 C-141.31 177.95 -141.31 177.95 -142.39 176.88 C-144 175 -144 175 -144 173 C-144.58 172.75 -145.15 172.5 -145.75 172.25 C-148.33 170.82 -150.06 169.22 -152 167 C-152 166.34 -152 165.68 -152 165 C-153.02 164.68 -153.02 164.68 -154.07 164.36 C-157.95 162.56 -160.76 160.02 -163.94 157.19 C-165.13 156.14 -166.33 155.09 -167.53 154.04 C-168.1 153.54 -168.68 153.03 -169.27 152.51 C-171.81 150.29 -174.4 148.15 -177 146 C-176.45 142.04 -174.56 140.24 -171.81 137.44 C-160.72 125.36 -157.02 111.36 -157.67 95.08 C-158.76 79.01 -165.25 68.73 -175.62 56.75 C-178 54 -178 54 -178 52 C-178.71 51.72 -179.43 51.44 -180.16 51.16 C-183.87 49.65 -187.47 47.93 -191.09 46.22 C-202.58 41.41 -218.96 40.32 -230.69 45.06 C-232.48 45.99 -234.26 46.97 -236 48 C-237.03 48.54 -238.07 49.09 -239.13 49.64 C-252.98 57.18 -260.17 68.72 -268 82 C-288.3 75.7 -288.3 75.7 -293 71 C-293.47 67.8 -293.16 66.29 -291.57 63.46 C-274.12 40.44 -251.68 22.13 -224 13 C-223.37 12.79 -222.74 12.58 -222.09 12.36 C-186.12 0.46 -151.02 5.16 -114.69 12.98 C-113.54 13.23 -112.39 13.48 -111.21 13.73 C-110.2 13.95 -109.2 14.17 -108.16 14.4 C-101.62 15.64 -95.29 16.16 -88.65 16.17 C-87.88 16.17 -87.1 16.17 -86.31 16.18 C-84.67 16.18 -83.04 16.19 -81.41 16.19 C-78.97 16.19 -76.52 16.21 -74.08 16.22 C-65.29 16.26 -56.83 15.81 -48.15 14.44 C-44.04 13.87 -40.14 13.85 -36 14 C-36 13.34 -36 12.68 -36 12 C-34.87 11.58 -34.87 11.58 -33.72 11.15 C-28.69 9.25 -23.71 7.35 -18.82 5.11 C-18.12 4.79 -17.42 4.47 -16.71 4.14 C-15.35 3.52 -13.99 2.88 -12.65 2.24 C-8.25 0.22 -4.81 -0.32 0 0 Z " fill="#343A4E" transform="translate(959,355)"/>
<path d="M0 0 C1.17 0.1 2.33 0.2 3.54 0.3 C4.53 0.39 4.53 0.39 5.55 0.48 C15.9 1.38 26.24 1.92 36.61 2.25 C38.79 2.31 40.98 2.39 43.16 2.47 C44.55 2.51 45.94 2.56 47.33 2.6 C48.58 2.64 49.82 2.68 51.11 2.73 C53.84 3.02 53.84 3.02 54.94 1.69 C57.61 1.55 60.26 1.65 62.94 1.69 C62.94 2.35 62.94 3.01 62.94 3.69 C63.62 3.63 64.31 3.57 65.01 3.5 C68.15 3.23 71.3 2.96 74.44 2.69 C75.52 2.59 76.59 2.5 77.7 2.4 C83.47 1.91 89.15 1.58 94.94 1.69 C95.32 2.72 95.32 2.72 95.71 3.78 C100.85 16.39 110.89 24.73 122.94 30.69 C126.25 31.81 129.57 32.7 132.95 33.59 C137.97 35.44 141.22 38.97 144.94 42.69 C145.6 43.02 146.26 43.35 146.94 43.69 C146.94 44.35 146.94 45.01 146.94 45.69 C147.93 45.36 148.92 45.03 149.94 44.69 C151.6 46.35 153.27 48.02 154.94 49.69 C155.64 50.33 156.34 50.97 157.06 51.62 C159.31 54.1 160.47 56.69 161.94 59.69 C164.3 62.96 166.6 65.42 169.94 67.69 C170.93 65.71 170.93 65.71 171.94 63.69 C176.81 68.31 176.81 68.31 177.94 71.69 C177.94 72.68 177.94 73.67 177.94 74.69 C179.01 76.34 179.01 76.34 180.44 77.88 C181.26 78.8 182.09 79.73 182.94 80.69 C181.95 81.02 180.96 81.35 179.94 81.69 C179.94 83.01 179.94 84.33 179.94 85.69 C162.07 94.6 143.43 101.24 124.56 107.69 C123.45 108.07 122.34 108.46 121.2 108.86 C108.52 113.11 108.52 113.11 101.94 112.69 C99.2 111.28 99.2 111.28 97.19 109.19 C96.45 108.45 95.71 107.71 94.95 106.95 C93.22 105 91.64 103.01 90.06 100.94 C85.81 95.82 79.71 94.23 73.31 93.31 C60.25 92.71 48.63 97.66 37.94 104.69 C26.97 111.78 17.8 117.16 4.23 115.32 C-2.48 113.61 -7.66 109.91 -13.06 105.69 C-13.9 105.11 -14.74 104.52 -15.6 103.93 C-18.68 101.13 -20.35 98.01 -22.12 94.31 C-22.47 93.61 -22.81 92.9 -23.17 92.18 C-26.32 85.54 -28.37 78.84 -30.06 71.69 C-30.28 70.84 -30.49 70 -30.71 69.13 C-35.01 51.23 -34.86 29.84 -25.06 13.69 C-22.91 10.82 -20.57 8.25 -18.06 5.69 C-17.4 4.9 -16.74 4.12 -16.06 3.31 C-11.35 -0.51 -5.79 -0.52 0 0 Z " fill="#52ABF8" transform="translate(643.0625,965.3125)"/>
<path d="M0 0 C0.33 0 0.66 0 1 0 C1.76 6.53 2.14 12.94 2.1 19.51 C2.1 20.79 2.1 20.79 2.09 22.09 C2.09 24.77 2.08 27.45 2.06 30.12 C2.06 31.96 2.05 33.79 2.05 35.62 C2.04 40.08 2.02 44.54 2 49 C1.01 49 0.02 49 -1 49 C-1.17 49.59 -1.34 50.17 -1.52 50.78 C-12.98 89.68 -31.26 123.53 -58 154 C-58.46 154.53 -58.92 155.05 -59.4 155.6 C-71.32 169.08 -84.35 181.52 -99 192 C-99.61 192.44 -100.22 192.88 -100.84 193.33 C-130.82 214.78 -164.09 229.52 -200 238 C-200.7 238.17 -201.39 238.33 -202.11 238.5 C-214.56 241.38 -227.29 242.11 -240 243 C-239.82 241.21 -239.82 241.21 -239 239 C-236.81 237.34 -236.81 237.34 -233.93 235.71 C-232.35 234.8 -232.35 234.8 -230.73 233.87 C-229.6 233.24 -228.48 232.6 -227.31 231.94 C-212.19 223.16 -199.58 213.05 -187 201 C-186.25 200.29 -185.5 199.58 -184.73 198.85 C-179.33 193.63 -174.66 187.89 -170 182 C-169.18 180.99 -168.37 179.98 -167.52 178.93 C-147.9 154.35 -137.45 125.98 -133 95 C-132.9 94.3 -132.79 93.59 -132.69 92.87 C-129.34 67.03 -132.82 42.01 -140.32 17.31 C-141.72 12.58 -142.87 7.8 -144 3 C-139.61 4.54 -135.9 6.85 -132.06 9.44 C-131.4 9.88 -130.75 10.32 -130.07 10.78 C-111.93 23.16 -95.67 37.79 -82 55 C-81.55 55.56 -81.1 56.12 -80.63 56.7 C-73.47 65.68 -67.79 75.31 -62.33 85.41 C-61.81 86.36 -61.29 87.32 -60.75 88.3 C-60.29 89.16 -59.83 90.02 -59.36 90.9 C-58.02 93.27 -58.02 93.27 -55 95 C-48.96 95.12 -46.28 92.85 -42.05 89.01 C-38.9 85.92 -36.21 82.59 -33.56 79.06 C-33 78.32 -32.45 77.58 -31.87 76.81 C-17.18 56.88 -9.33 34.28 -3.58 10.36 C-1.38 1.38 -1.38 1.38 0 0 Z " fill="#FBFBFB" transform="translate(986,659)"/>
<path d="M0 0 C0.99 0.5 0.99 0.5 2 1 C-0.24 46.45 -10.11 83.55 -43 117 C-43.58 117.6 -44.16 118.2 -44.76 118.82 C-52.45 126.75 -60.23 134.26 -69 141 C-70.17 141.9 -71.33 142.8 -72.5 143.7 C-74.25 145.04 -76 146.39 -77.76 147.73 C-79.96 149.4 -82.04 151.04 -84 153 C-103.63 169.55 -128.67 182.48 -152.75 191 C-153.57 191.29 -154.39 191.58 -155.24 191.88 C-159.84 193.45 -164.17 194.48 -169 195 C-169 194.01 -169 193.02 -169 192 C-167.27 190.53 -167.27 190.53 -164.81 188.94 C-148.21 177.75 -134.22 164.28 -120.05 150.23 C-118.99 149.17 -117.92 148.12 -116.85 147.06 C-111.08 141.36 -105.69 135.65 -101 129 C-99.05 126.62 -97.03 124.32 -95 122 C-98.6 122.58 -101.35 123.53 -104.53 125.3 C-105.82 126.02 -105.82 126.02 -107.14 126.74 C-108.06 127.26 -108.99 127.78 -109.94 128.31 C-110.91 128.85 -111.88 129.38 -112.88 129.94 C-117.78 132.64 -122.66 135.37 -127.53 138.11 C-140.34 145.28 -153.37 151.54 -167 157 C-168.46 157.6 -168.46 157.6 -169.94 158.2 C-170.91 158.58 -171.87 158.96 -172.86 159.34 C-173.73 159.69 -174.59 160.03 -175.49 160.38 C-178.37 161.09 -180.17 160.84 -183 160 C-185.08 157.92 -184.16 153.36 -184.16 150.49 C-184.17 149.6 -184.17 148.7 -184.18 147.78 C-184.19 144.82 -184.2 141.85 -184.2 138.88 C-184.21 136.83 -184.21 134.77 -184.22 132.72 C-184.23 128.41 -184.24 124.1 -184.24 119.78 C-184.25 114.25 -184.27 108.71 -184.3 103.18 C-184.32 98.94 -184.32 94.69 -184.32 90.45 C-184.33 88.41 -184.33 86.37 -184.35 84.32 C-184.36 81.47 -184.36 78.62 -184.36 75.77 C-184.37 74.92 -184.37 74.07 -184.38 73.2 C-184.34 67.53 -184.34 67.53 -182.88 65.28 C-180.1 63.38 -177.88 63.63 -174.53 63.64 C-173.87 63.64 -173.21 63.63 -172.53 63.63 C-170.31 63.63 -168.1 63.64 -165.88 63.66 C-164.29 63.66 -162.71 63.66 -161.12 63.66 C-156.81 63.66 -152.5 63.67 -148.19 63.7 C-143.68 63.71 -139.18 63.72 -134.67 63.72 C-126.14 63.73 -117.61 63.75 -109.08 63.78 C-99.37 63.82 -89.65 63.83 -79.94 63.85 C-59.96 63.88 -39.98 63.93 -20 64 C-18.72 60.69 -17.44 57.37 -16.17 54.06 C-15.81 53.13 -15.45 52.21 -15.09 51.25 C-9.94 37.82 -6.61 24.39 -4.43 10.17 C-4.29 9.28 -4.14 8.39 -3.99 7.47 C-3.87 6.68 -3.75 5.89 -3.63 5.07 C-2.9 2.66 -1.9 1.61 0 0 Z M0 2 C1 6 1 6 1 6 Z " fill="#353B4F" transform="translate(796,699)"/>
<path d="M0 0 C0.99 0.5 0.99 0.5 2 1 C2.13 11.45 2.26 21.9 2.39 32.35 C2.45 37.21 2.51 42.07 2.57 46.92 C2.6 48.81 2.62 50.7 2.64 52.59 C2.66 53.52 2.67 54.45 2.68 55.41 C2.77 62.74 2.85 70.08 2.91 77.41 C2.96 82.21 3.03 87.02 3.14 91.82 C3.18 93.88 3.22 95.94 3.25 98 C3.28 100.42 3.34 102.84 3.41 105.25 C3.48 112.09 2.7 116.01 -1.38 121.56 C-3.2 123.42 -5.08 125.24 -7 127 C-8.71 129 -10.4 131.02 -12.06 133.06 C-12.89 134.05 -13.72 135.03 -14.57 136.05 C-17.71 139.87 -20.65 143.83 -23.59 147.8 C-26.29 151.42 -29.11 154.93 -31.94 158.44 C-36.47 164.07 -40.91 169.75 -45.3 175.49 C-48.51 179.68 -51.76 183.84 -55 188 C-62.74 197.94 -70.47 207.89 -78 218 C-84.03 216.92 -88.14 212.38 -91.8 207.7 C-93.55 205.17 -95.22 202.6 -96.88 200 C-98.09 198.14 -99.3 196.27 -100.51 194.41 C-101.39 193.04 -101.39 193.04 -102.29 191.64 C-103.85 189.23 -105.44 186.84 -107.05 184.47 C-107.51 183.79 -107.97 183.12 -108.45 182.42 C-109.29 181.18 -110.13 179.94 -110.98 178.71 C-116.1 171.1 -116.1 171.1 -115.88 166.64 C-114.69 163.07 -112.85 159.99 -110.88 156.81 C-110.47 156.15 -110.06 155.48 -109.65 154.79 C-107.36 151.07 -104.96 147.47 -102.38 143.94 C-99.75 140.3 -97.79 136.62 -95.88 132.56 C-91.65 123.81 -86.05 116.09 -80.48 108.15 C-77.98 104.52 -75.66 100.79 -73.37 97.03 C-72 95 -72 95 -70.48 93.55 C-68.51 91.48 -67.62 89.29 -66.44 86.69 C-60.35 74.27 -51.2 63.54 -42.8 52.64 C-38.92 47.59 -35.2 42.48 -31.57 37.25 C-24.81 27.57 -17.21 18.56 -9.45 9.68 C-8.42 8.48 -7.39 7.28 -6.38 6.07 C-5.85 5.43 -5.31 4.8 -4.77 4.15 C-4.28 3.57 -3.8 2.99 -3.31 2.4 C-2 1 -2 1 0 0 Z " fill="#353B4F" transform="translate(363,695)"/>
<path d="M0 0 C3.65 2.91 5.79 5.68 6.42 10.31 C6.46 11.2 6.5 12.09 6.55 13.01 C6.6 14.02 6.66 15.03 6.72 16.06 C6.78 17.14 6.84 18.22 6.9 19.33 C8.38 40.9 13.89 60.23 24.55 79.06 C27.09 83.59 27.09 83.59 27.09 86.89 C21.76 85.46 16.44 84.01 11.15 82.43 C-14.51 74.88 -40.46 72.7 -67.1 72.65 C-70.38 72.64 -73.65 72.61 -76.93 72.58 C-96.17 72.48 -114.24 75.01 -132.96 79.35 C-133.94 79.56 -134.91 79.78 -135.91 80 C-137.18 80.29 -137.18 80.29 -138.47 80.59 C-141.19 80.92 -143.27 80.56 -145.91 79.89 C-138.92 67 -123.59 58.14 -111.91 49.89 C-110.95 49.21 -110.95 49.21 -109.98 48.52 C-94.73 37.8 -78.3 28.74 -61.91 19.89 C-60.69 19.23 -59.48 18.57 -58.26 17.91 C-54.88 16.08 -51.5 14.26 -48.12 12.45 C-46.73 11.7 -45.34 10.95 -43.96 10.2 C-12.14 -7.05 -12.14 -7.05 0 0 Z " fill="#D3D0CB" transform="translate(649.91015625,446.109375)"/>
<path d="M0 0 C8.24 6.44 14.94 17.38 16.89 27.7 C18.08 37.4 14.73 46.04 8.89 53.7 C3.39 60.16 -2.61 65.07 -11.11 66.7 C-26.11 67.67 -35.86 64.21 -47.52 54.75 C-53.45 49.29 -54.88 44.87 -55.32 36.99 C-55.7 25.69 -54.61 16.67 -47.12 7.8 C-35.09 -4.79 -15.66 -9.66 0 0 Z " fill="#FCFCFC" transform="translate(765.109375,420.30078125)"/>
<path d="M0 0 C1.15 0.25 2.3 0.49 3.48 0.75 C4.49 0.97 5.5 1.19 6.53 1.42 C13.07 2.66 19.4 3.18 26.04 3.19 C26.81 3.19 27.59 3.19 28.39 3.2 C30.02 3.2 31.65 3.2 33.28 3.2 C35.72 3.21 38.17 3.22 40.61 3.24 C49.37 3.27 57.79 2.84 66.45 1.46 C71.2 0.81 75.9 0.84 80.69 1.02 C80.36 1.68 80.03 2.34 79.69 3.02 C77.57 3.7 75.42 4.28 73.25 4.83 C68.91 5.98 64.97 7.24 61.07 9.52 C50.67 15.11 36.36 16.63 24.69 17.02 C23.54 17.06 22.4 17.1 21.22 17.14 C3.13 17.45 -14.6 14.82 -32.38 11.78 C-69.62 5.49 -109.27 9.55 -141.31 31.02 C-144.56 33.34 -147.75 35.75 -150.91 38.2 C-153.31 40.02 -153.31 40.02 -155.31 41.02 C-155.76 41.8 -156.22 42.59 -156.68 43.39 C-158.33 46.05 -159.66 47.4 -162.31 49.02 C-162.97 49.02 -163.63 49.02 -164.31 49.02 C-164.51 49.7 -164.72 50.38 -164.93 51.08 C-166.76 54.99 -169.41 57.86 -172.31 61.02 C-177.18 59.14 -177.18 59.14 -178.31 58.02 C-179.02 52.25 -176 49.31 -172.65 44.92 C-156.14 24.44 -134.42 8.3 -109.31 0.02 C-108.36 -0.3 -108.36 -0.3 -107.4 -0.62 C-71.43 -12.52 -36.32 -7.82 0 0 Z " fill="#D3D0CB" transform="translate(844.308349609375,367.98095703125)"/>
<path d="M0 0 C-0.66 0.33 -1.32 0.66 -2 1 C-0.84 1.13 -0.84 1.13 0.34 1.26 C1.34 1.4 2.34 1.54 3.38 1.69 C4.87 1.88 4.87 1.88 6.4 2.07 C9 3 9 3 10.35 5.58 C10.57 6.38 10.78 7.18 11 8 C7.57 11.25 4.71 13.26 0.25 14.88 C-5.56 17.06 -10.06 20.29 -15 24 C-16.28 24.92 -17.56 25.85 -18.84 26.77 C-29.54 34.55 -38.84 42.56 -46.62 53.38 C-47.08 53.92 -47.53 54.45 -48 55 C-48.66 55 -49.32 55 -50 55 C-50.24 55.68 -50.48 56.36 -50.73 57.05 C-52.26 60.61 -54.22 63.84 -56.25 67.12 C-59.61 72.63 -62.77 78.18 -65.71 83.93 C-67.38 86.62 -69.15 87.76 -72.19 88.62 C-81.32 89.84 -81.32 89.84 -85 88 C-87.1 81.71 -85.97 75.53 -84.31 69.25 C-84.14 68.56 -83.96 67.88 -83.78 67.17 C-81.79 59.76 -79.28 52.41 -75 46 C-74.34 46 -73.68 46 -73 46 C-72.77 45.36 -72.55 44.72 -72.31 44.06 C-64.54 25.93 -47.76 13.44 -29.92 5.76 C-8.01 -2.88 -8.01 -2.88 0 0 Z " fill="#52ABF8" transform="translate(695,339)"/>
<path d="M0 0 C2.81 2.23 5.1 4.42 6.09 7.89 C6.24 10.58 6.18 13.19 6.09 15.89 C4.17 15.95 4.17 15.95 2.21 16.02 C-5.48 16.75 -12.66 19.6 -19.89 22.19 C-21.71 22.82 -23.56 23.39 -25.4 23.95 C-26.23 24.26 -27.06 24.57 -27.91 24.89 C-28.88 26.92 -28.88 26.92 -28.91 28.89 C-27.59 29.55 -26.27 30.21 -24.91 30.89 C-24.91 31.88 -24.91 32.87 -24.91 33.89 C-25.78 34.1 -26.65 34.31 -27.55 34.53 C-61.86 42.86 -97.5 52.25 -128.51 69.56 C-131.27 71.09 -134.07 72.51 -136.91 73.89 C-135.99 66.64 -130.38 63.6 -124.96 59.37 C-105.23 44.13 -83.78 31.77 -61.91 19.89 C-61.02 19.41 -61.02 19.41 -60.12 18.92 C-56.13 16.75 -52.13 14.6 -48.12 12.45 C-46.73 11.7 -45.34 10.95 -43.96 10.2 C-12.14 -7.05 -12.14 -7.05 0 0 Z " fill="#FBFBFB" transform="translate(649.91015625,446.109375)"/>
<path d="M0 0 C1.7 5.11 1.27 10.46 1.31 15.81 C1.36 17.58 1.36 17.58 1.4 19.38 C1.48 30.1 1.48 30.1 -3 35 C-3.54 35.62 -4.08 36.23 -4.64 36.87 C-7.61 39.76 -10.62 42.55 -13.77 45.23 C-17.93 48.86 -21.7 52.76 -25.44 56.81 C-26.09 57.51 -26.74 58.22 -27.41 58.94 C-28.69 60.33 -29.98 61.72 -31.26 63.11 C-32.74 64.72 -34.23 66.32 -35.72 67.91 C-40.12 72.67 -43.94 77.55 -47.49 82.97 C-49 85 -49 85 -52 87 C-56 86.98 -58.26 86.05 -61.14 83.42 C-62.19 82.35 -63.23 81.28 -64.25 80.19 C-64.78 79.65 -65.31 79.12 -65.85 78.57 C-71.08 73.18 -71.08 73.18 -72 70 C-71.67 61.97 -65.49 56.25 -59.87 51.02 C-58.56 49.9 -57.25 48.8 -55.92 47.7 C-53.14 45.23 -50.86 42.4 -48.54 39.5 C-47 38 -47 38 -44 38 C-43.83 37.32 -43.67 36.64 -43.5 35.94 C-41.99 32.97 -40.89 31.89 -38.38 29.81 C-34.1 26.16 -30.3 22.2 -26.5 18.06 C-25.19 16.65 -23.88 15.25 -22.57 13.84 C-21.96 13.18 -21.34 12.51 -20.7 11.83 C-18.6 9.57 -16.47 7.33 -14.31 5.12 C-13.75 4.55 -13.19 3.98 -12.61 3.38 C-8.56 -0.1 -5.27 -0.2 0 0 Z " fill="#000002" transform="translate(366,859)"/>
<path d="M0 0 C0.32 1.08 0.63 2.16 0.96 3.27 C3.97 13.07 7.74 21.94 12.75 30.89 C13.17 31.65 13.59 32.4 14.02 33.18 C14.4 33.85 14.78 34.52 15.18 35.2 C16 37 16 37 16 40 C10.67 38.57 5.35 37.12 0.06 35.54 C-22.68 28.84 -46.17 25.79 -69.86 25.9 C-71.6 25.9 -71.6 25.9 -73.37 25.91 C-77.02 25.91 -80.67 25.92 -84.31 25.94 C-86.81 25.94 -89.3 25.95 -91.79 25.95 C-97.86 25.96 -103.93 25.98 -110 26 C-109.34 25.67 -108.68 25.34 -108 25 C-107.71 24.21 -107.43 23.41 -107.13 22.6 C-105.42 18.67 -102.98 17.95 -99.21 16.22 C-92.63 13.72 -85.83 12.09 -79 10.44 C-78.21 10.24 -77.42 10.05 -76.6 9.85 C-62.5 6.38 -48.42 3.82 -34 2 C-32.42 1.79 -30.85 1.57 -29.27 1.36 C-7.78 -1.52 -7.78 -1.52 0 0 Z " fill="#53ACF9" transform="translate(661,493)"/>
<path d="M0 0 C3.94 0.56 5.89 2.44 8.75 5.12 C9.63 5.94 10.52 6.76 11.43 7.61 C12.28 8.4 13.12 9.19 14 10 C15.31 11.13 16.62 12.26 17.94 13.38 C25.55 20.05 32.72 26.89 38.28 35.4 C39.89 37.84 41.58 40.21 43.3 42.58 C65.31 73.99 76.16 111.96 69.69 150.06 C67.27 162.98 67.27 162.98 65 168 C64.34 168.33 63.68 168.66 63 169 C59.27 167.73 57.42 166.68 55.34 163.29 C53.22 157.91 53.52 152.13 53.46 146.43 C53.42 142.93 53.32 139.44 53.23 135.95 C53.2 134.92 53.2 134.92 53.18 133.86 C52.53 109.61 48.74 85.33 39 63 C38.57 62.02 38.15 61.04 37.71 60.03 C31.47 45.95 24.49 33.14 15 21 C14.25 20.02 13.49 19.04 12.71 18.02 C9.09 13.4 5.27 8.99 1.25 4.69 C0 3 0 3 0 0 Z " fill="#53ACF9" transform="translate(869,438)"/>
<path d="M0 0 C17.54 4.84 31.73 16.91 44.84 29.04 C46.66 30.69 48.51 32.18 50.44 33.69 C62.14 43.64 71.05 58.32 75 73 C75 73.66 75 74.32 75 75 C66.75 73.91 62.13 69.33 56 64 C54.28 62.62 52.55 61.24 50.81 59.88 C44.1 54.51 37.83 48.9 31.8 42.77 C29.95 40.88 29.95 40.88 27.44 39 C24.59 36.67 22.34 34.07 19.96 31.28 C17.81 28.77 15.56 26.36 13.31 23.94 C9.86 20.13 7.43 16.5 5 12 C3.69 10.65 2.36 9.31 1 8 C-0.31 6 -0.31 6 -1 4 C-0.71 2.66 -0.38 1.32 0 0 Z " fill="#000002" transform="translate(759,531)"/>
<path d="M0 0 C0.99 0.5 0.99 0.5 2 1 C-0.24 46.45 -10.11 83.55 -43 117 C-43.87 117.9 -43.87 117.9 -44.76 118.82 C-52.45 126.75 -60.24 134.24 -69 141 C-70.14 141.91 -71.28 142.82 -72.43 143.73 C-73.6 144.65 -74.77 145.58 -75.94 146.5 C-76.75 147.15 -76.75 147.15 -77.59 147.82 C-80.31 149.93 -82.54 151.53 -86 152 C-83.71 148.82 -81.21 145.85 -78.64 142.89 C-77.6 141.69 -76.57 140.48 -75.55 139.26 C-71.62 134.63 -67.38 130.38 -63.06 126.12 C-58.38 121.49 -53.97 116.83 -49.97 111.59 C-48.52 109.68 -47.02 107.82 -45.5 105.98 C-23.36 79.17 -11.38 47.31 -5.08 13.48 C-4.27 9.23 -3.43 5.1 -2 1 C-1.34 0.67 -0.68 0.34 0 0 Z M0 2 C1 6 1 6 1 6 Z " fill="#D2CFCA" transform="translate(796,699)"/>
<path d="M0 0 C4.85 3.93 8.5 9.94 9.62 16.12 C9.99 20.66 10.13 23.1 8.12 27.19 C-0.77 37.64 -0.77 37.64 -6.41 38.4 C-14.88 38.75 -20.4 35.69 -27.38 31.19 C-30.69 27.77 -31.25 24.46 -31.69 19.81 C-31.14 13.41 -29.96 8.13 -25.06 3.69 C-17.7 -1.83 -8.78 -2.28 0 0 Z " fill="#000002" transform="translate(756.375,432.875)"/>
<path d="M0 0 C3.72 2.48 3.66 3.54 4.56 7.81 C4.81 8.98 5.06 10.15 5.32 11.36 C6.15 15.82 6.82 20.29 7.46 24.78 C8.18 29.08 9.26 33.24 10.41 37.44 C11 40 11 40 11 44 C11.8 44.21 12.61 44.41 13.44 44.62 C14.28 45.08 15.13 45.53 16 46 C16.81 49.12 16.81 49.12 17 52 C18.49 52.49 18.49 52.49 20 53 C20 54.98 20 56.96 20 59 C19.34 59 18.68 59 18 59 C17.91 63.47 18.14 67.61 19 72 C12.63 72.21 7 72.3 1 70 C-1.4 67.6 -1.28 66.96 -1.41 63.67 C-1.45 62.74 -1.49 61.82 -1.53 60.86 C-1.56 59.84 -1.59 58.81 -1.62 57.75 C-1.66 56.68 -1.7 55.61 -1.74 54.5 C-2.02 44.78 -2.13 35.05 -2.18 25.32 C-2.18 23.61 -2.19 21.9 -2.21 20.19 C-2.23 17.77 -2.23 15.35 -2.23 12.92 C-2.24 12.2 -2.24 11.47 -2.25 10.72 C-2.23 6.7 -1.78 3.62 0 0 Z M16 58 C17 62 17 62 17 62 Z " fill="#53ACF9" transform="translate(565,1015)"/>
<path d="M0 0 C0.66 0.33 1.32 0.66 2 1 C-0.1 6.24 -2.6 10.92 -5.62 15.69 C-6.07 16.39 -6.51 17.08 -6.96 17.8 C-15.8 31.63 -26.29 43.55 -38 55 C-38 49.23 -35.48 46.15 -31.56 42.12 C-24.28 34.3 -18.06 25.73 -12.22 16.78 C-11.55 15.75 -11.55 15.75 -10.87 14.7 C-10.02 13.39 -9.18 12.07 -8.35 10.75 C-6.22 7.44 -4.66 5.49 -1 4 C-0.19 1.95 -0.19 1.95 0 0 Z " fill="#D0CECA" transform="translate(1009,319)"/>
<path d="M0 0 C0.33 0 0.66 0 1 0 C1 51.15 1 102.3 1 155 C0.67 155 0.34 155 0 155 C0 103.85 0 52.7 0 0 Z " fill="#000002" transform="translate(565,828)"/>
<path d="M0 0 C-2.05 2.25 -3.01 3 -6 4 C-6.68 5.32 -7.35 6.66 -8 8 C-11.47 10.32 -12.96 10.27 -17.06 10.25 C-18.13 10.26 -19.19 10.26 -20.29 10.27 C-23 10 -23 10 -25 8 C-22.16 6.64 -19.3 5.32 -16.44 4 C-15.64 3.62 -14.84 3.24 -14.01 2.84 C-9.06 0.58 -5.45 -0.47 0 0 Z " fill="#51A7F2" transform="translate(959,355)"/>
<path d="M0 0 C3.04 1.52 4.71 2.44 6.31 5.5 C7 8 7 8 7 11 C8.08 12.66 8.08 12.66 9.5 14.19 C10.74 15.58 10.74 15.58 12 17 C7.64 17 5.93 14.72 2.81 11.87 C0.68 9.66 -0.44 8.04 -1 5 C-0.62 2.19 -0.62 2.19 0 0 Z " fill="#000002" transform="translate(814,1029)"/>
<path d="M0 0 C0.33 0 0.66 0 1 0 C1 24.09 1 48.18 1 73 C0.67 73 0.34 73 0 73 C0 48.91 0 24.82 0 0 Z " fill="#000002" transform="translate(366,707)"/>
<path d="M0 0 C1.94 0.62 1.94 0.62 4 2 C4.75 5.12 4.75 5.12 5 8 C5.99 8.33 6.98 8.66 8 9 C8 10.98 8 12.96 8 15 C7.34 15 6.68 15 6 15 C5.67 15.99 5.34 16.98 5 18 C5 16.68 5 15.36 5 14 C4.34 14 3.68 14 3 14 C2.5 12.04 2 10.08 1.5 8.12 C1.22 7.03 0.94 5.94 0.66 4.82 C0 2 0 2 0 0 Z " fill="#000103" transform="translate(577,1059)"/>
<path d="M0 0 C1.3 0.93 2.59 1.87 3.88 2.81 C4.59 3.33 5.31 3.86 6.05 4.39 C8 6 8 6 10 9 C10 9.99 10 10.98 10 12 C4.79 10.36 1.39 7.45 -1.31 2.69 C-1.54 2.13 -1.77 1.57 -2 1 C-1.34 0.67 -0.68 0.34 0 0 Z " fill="#000002" transform="translate(792,1010)"/>
<path d="M0 0 C2.06 0.44 2.06 0.44 4 1 C3.01 1.33 2.02 1.66 1 2 C0.67 2.99 0.34 3.98 0 5 C-1.31 6.36 -2.65 7.69 -4 9 C-5.7 10.97 -7.35 12.98 -9 15 C-9.99 14.67 -10.98 14.34 -12 14 C-11.3 13.34 -10.6 12.68 -9.88 12 C-6.99 9.13 -4.63 5.95 -2.23 2.67 C-1 1 -1 1 0 0 Z " fill="#000002" transform="translate(953,870)"/>
<path d="M0 0 C0.33 0 0.66 0 1 0 C1.33 4.95 1.66 9.9 2 15 C-1.08 11.92 -1.42 11.51 -1.81 7.5 C-1.9 6.73 -1.99 5.95 -2.08 5.16 C-2 3 -2 3 0 0 Z " fill="#D4D1CC" transform="translate(986,659)"/>
<path d="M0 0 C-1.43 5.01 -3.98 6.94 -8 10 C-8 6.46 -7.39 5.9 -5.12 3.31 C-4.59 2.69 -4.06 2.07 -3.51 1.43 C-2 0 -2 0 0 0 Z " fill="#000002" transform="translate(596,363)"/>
<path d="M0 0 C0.33 0 0.66 0 1 0 C1 7.26 1 14.52 1 22 C0.67 22 0.34 22 0 22 C0 14.74 0 7.48 0 0 Z " fill="#000002" transform="translate(365,296)"/>
<path d="M0 0 C0.33 0 0.66 0 1 0 C1 4.62 1 9.24 1 14 C0.67 14 0.34 14 0 14 C0 9.38 0 4.76 0 0 Z " fill="#000002" transform="translate(989,688)"/>
<path d="M0 0 C2.64 0 5.28 0 8 0 C8 0.33 8 0.66 8 1 C5.36 1 2.72 1 0 1 C0 0.67 0 0.34 0 0 Z " fill="#000002" transform="translate(861,1015)"/>
<path d="M0 0 C2.31 0 4.62 0 7 0 C7 0.33 7 0.66 7 1 C4.69 1 2.38 1 0 1 C0 0.67 0 0.34 0 0 Z " fill="#000002" transform="translate(882,343)"/>
<path d="M0 0 C1.98 0 3.96 0 6 0 C6 0.33 6 0.66 6 1 C4.02 1 2.04 1 0 1 C0 0.67 0 0.34 0 0 Z " fill="#000002" transform="translate(865,400)"/>
<path d="M0 0 C0 0.99 0 1.98 0 3 C-0.66 2.67 -1.32 2.34 -2 2 C-1.34 1.34 -0.68 0.68 0 0 Z " fill="#000002" transform="translate(683,361)"/>
<path d="M0 0 C1 4 1 4 1 4 Z " fill="#000002" transform="translate(1088,663)"/>
<path d="M0 0 C1 4 1 4 1 4 Z " fill="#000002" transform="translate(565,442)"/>
<path d="M0 0 C0.99 0.5 0.99 0.5 2 1 C1.01 1.5 1.01 1.5 0 2 C0 1.34 0 0.68 0 0 Z " fill="#353B4F" transform="translate(625,894)"/>
<path d="" fill="#11131B" transform="translate(0,0)"/>
<path d="" fill="#000002" transform="translate(0,0)"/>
<path d="" fill="#353B4F" transform="translate(0,0)"/>
<path d="" fill="#000002" transform="translate(0,0)"/>
<path d="M0 0 C2 1 2 1 2 1 Z " fill="#000002" transform="translate(856,536)"/>
<path d="M0 0 C2 1 2 1 2 1 Z " fill="#000002" transform="translate(602,519)"/>
<path d="M0 0 C2 1 2 1 2 1 Z " fill="#000002" transform="translate(669,429)"/>
<path d="M0 0 C2 1 2 1 2 1 Z " fill="#000002" transform="translate(756,398)"/>
<path d="M0 0 C2 1 2 1 2 1 Z " fill="#000002" transform="translate(735,398)"/>
<path d="M0 0 C2 1 2 1 2 1 Z " fill="#000002" transform="translate(692,355)"/>
<path d="" fill="#000002" transform="translate(0,0)"/>
<path d="" fill="#000002" transform="translate(0,0)"/>
<path d="" fill="#000002" transform="translate(0,0)"/>
<path d="" fill="#000002" transform="translate(0,0)"/>
<path d="" fill="#000002" transform="translate(0,0)"/>
<path d="" fill="#000002" transform="translate(0,0)"/>
<path d="" fill="#000002" transform="translate(0,0)"/>
<path d="" fill="#000002" transform="translate(0,0)"/>
<path d="" fill="#000002" transform="translate(0,0)"/>
<path d="" fill="#000002" transform="translate(0,0)"/>
<path d="" fill="#000002" transform="translate(0,0)"/>
<path d="" fill="#000002" transform="translate(0,0)"/>
<path d="" fill="#000002" transform="translate(0,0)"/>
<path d="" fill="#000002" transform="translate(0,0)"/>
<path d="" fill="#000002" transform="translate(0,0)"/>
<path d="" fill="#000002" transform="translate(0,0)"/>
<path d="" fill="#000002" transform="translate(0,0)"/>
<path d="" fill="#000002" transform="translate(0,0)"/>
<path d="" fill="#000002" transform="translate(0,0)"/>
<path d="" fill="#000002" transform="translate(0,0)"/>
<path d="" fill="#000002" transform="translate(0,0)"/>
<path d="" fill="#000002" transform="translate(0,0)"/>
<path d="" fill="#000002" transform="translate(0,0)"/>
<path d="" fill="#000002" transform="translate(0,0)"/>
<path d="" fill="#000002" transform="translate(0,0)"/>
<path d="" fill="#000002" transform="translate(0,0)"/>
<path d="" fill="#000002" transform="translate(0,0)"/>
<path d="" fill="#000002" transform="translate(0,0)"/>
<path d="" fill="#000002" transform="translate(0,0)"/>
<path d="" fill="#000002" transform="translate(0,0)"/>
<path d="" fill="#000002" transform="translate(0,0)"/>
<path d="" fill="#000002" transform="translate(0,0)"/>
<path d="" fill="#000002" transform="translate(0,0)"/>
<path d="" fill="#000002" transform="translate(0,0)"/>
<path d="" fill="#000002" transform="translate(0,0)"/>
<path d="" fill="#000002" transform="translate(0,0)"/>
<path d="" fill="#000002" transform="translate(0,0)"/>
<path d="" fill="#000002" transform="translate(0,0)"/>
<path d="" fill="#000002" transform="translate(0,0)"/>
<path d="" fill="#000002" transform="translate(0,0)"/>
<path d="" fill="#000002" transform="translate(0,0)"/>
<path d="" fill="#000002" transform="translate(0,0)"/>
<path d="" fill="#000002" transform="translate(0,0)"/>
<path d="" fill="#000002" transform="translate(0,0)"/>
<path d="" fill="#000002" transform="translate(0,0)"/>
<path d="" fill="#000002" transform="translate(0,0)"/>
<path d="" fill="#000002" transform="translate(0,0)"/>
<path d="" fill="#000002" transform="translate(0,0)"/>
<path d="" fill="#000002" transform="translate(0,0)"/>
<path d="" fill="#000002" transform="translate(0,0)"/>
<path d="" fill="#000002" transform="translate(0,0)"/>
<path d="" fill="#000002" transform="translate(0,0)"/>
<path d="" fill="#000002" transform="translate(0,0)"/>
<path d="" fill="#000002" transform="translate(0,0)"/>
<path d="" fill="#000002" transform="translate(0,0)"/>
<path d="" fill="#000002" transform="translate(0,0)"/>
<path d="" fill="#000002" transform="translate(0,0)"/>
<path d="" fill="#000002" transform="translate(0,0)"/>
<path d="" fill="#000002" transform="translate(0,0)"/>
<path d="" fill="#000002" transform="translate(0,0)"/>
<path d="" fill="#000002" transform="translate(0,0)"/>
<path d="" fill="#000002" transform="translate(0,0)"/>
<path d="" fill="#000002" transform="translate(0,0)"/>
<path d="" fill="#000002" transform="translate(0,0)"/>
<path d="" fill="#000002" transform="translate(0,0)"/>
<path d="" fill="#000002" transform="translate(0,0)"/>
<path d="" fill="#000002" transform="translate(0,0)"/>
<path d="" fill="#000002" transform="translate(0,0)"/>
<path d="" fill="#000002" transform="translate(0,0)"/>
<path d="" fill="#000002" transform="translate(0,0)"/>
<path d="" fill="#000002" transform="translate(0,0)"/>
<path d="" fill="#000002" transform="translate(0,0)"/>
<path d="" fill="#000002" transform="translate(0,0)"/>
<path d="" fill="#000002" transform="translate(0,0)"/>
<path d="" fill="#000002" transform="translate(0,0)"/>
<path d="" fill="#000002" transform="translate(0,0)"/>
<path d="" fill="#000002" transform="translate(0,0)"/>
<path d="" fill="#000002" transform="translate(0,0)"/>
<path d="" fill="#000002" transform="translate(0,0)"/>
<path d="" fill="#000002" transform="translate(0,0)"/>
<path d="" fill="#000002" transform="translate(0,0)"/>
<path d="" fill="#000002" transform="translate(0,0)"/>
<path d="" fill="#000002" transform="translate(0,0)"/>
<path d="" fill="#000002" transform="translate(0,0)"/>
<path d="" fill="#000002" transform="translate(0,0)"/>
<path d="" fill="#000002" transform="translate(0,0)"/>
<path d="" fill="#000002" transform="translate(0,0)"/>
<path d="" fill="#000002" transform="translate(0,0)"/>
<path d="" fill="#000002" transform="translate(0,0)"/>
<path d="" fill="#000002" transform="translate(0,0)"/>
<path d="" fill="#000002" transform="translate(0,0)"/>
<path d="" fill="#000002" transform="translate(0,0)"/>
<path d="" fill="#000002" transform="translate(0,0)"/>
<path d="" fill="#000002" transform="translate(0,0)"/>
<path d="" fill="#000002" transform="translate(0,0)"/>
<path d="" fill="#000002" transform="translate(0,0)"/>
<path d="" fill="#000002" transform="translate(0,0)"/>
<path d="" fill="#000002" transform="translate(0,0)"/>
<path d="" fill="#000002" transform="translate(0,0)"/>
<path d="" fill="#000002" transform="translate(0,0)"/>
<path d="" fill="#000002" transform="translate(0,0)"/>
<path d="" fill="#000002" transform="translate(0,0)"/>
<path d="" fill="#000002" transform="translate(0,0)"/>
<path d="" fill="#000002" transform="translate(0,0)"/>
<path d="" fill="#000002" transform="translate(0,0)"/>
<path d="" fill="#000002" transform="translate(0,0)"/>
<path d="" fill="#000002" transform="translate(0,0)"/>
<path d="" fill="#000002" transform="translate(0,0)"/>
<path d="" fill="#000002" transform="translate(0,0)"/>
<path d="" fill="#000002" transform="translate(0,0)"/>
<path d="" fill="#000002" transform="translate(0,0)"/>
<path d="" fill="#000002" transform="translate(0,0)"/>
<path d="" fill="#000002" transform="translate(0,0)"/>
<path d="" fill="#000002" transform="translate(0,0)"/>
<path d="" fill="#000002" transform="translate(0,0)"/>
<path d="" fill="#000002" transform="translate(0,0)"/>
<path d="" fill="#000002" transform="translate(0,0)"/>
<path d="" fill="#000002" transform="translate(0,0)"/>
<path d="" fill="#000002" transform="translate(0,0)"/>
<path d="" fill="#353B4F" transform="translate(0,0)"/>
<path d="" fill="#000002" transform="translate(0,0)"/>
<path d="" fill="#353B4F" transform="translate(0,0)"/>
<path d="" fill="#000002" transform="translate(0,0)"/>
<path d="" fill="#D4D1CC" transform="translate(0,0)"/>
<path d="" fill="#D4D1CC" transform="translate(0,0)"/>
<path d="" fill="#000002" transform="translate(0,0)"/>
<path d="" fill="#000002" transform="translate(0,0)"/>
<path d="" fill="#000002" transform="translate(0,0)"/>
<path d="" fill="#000002" transform="translate(0,0)"/>
<path d="" fill="#353B4F" transform="translate(0,0)"/>
<path d="" fill="#000002" transform="translate(0,0)"/>
<path d="" fill="#000002" transform="translate(0,0)"/>
<path d="" fill="#000002" transform="translate(0,0)"/>
<path d="" fill="#000002" transform="translate(0,0)"/>
<path d="" fill="#000002" transform="translate(0,0)"/>
<path d="" fill="#000002" transform="translate(0,0)"/>
<path d="" fill="#000002" transform="translate(0,0)"/>
<path d="" fill="#000002" transform="translate(0,0)"/>
<path d="" fill="#000002" transform="translate(0,0)"/>
<path d="" fill="#000002" transform="translate(0,0)"/>
<path d="" fill="#000002" transform="translate(0,0)"/>
<path d="" fill="#000002" transform="translate(0,0)"/>
<path d="" fill="#000002" transform="translate(0,0)"/>
<path d="" fill="#000002" transform="translate(0,0)"/>
<path d="" fill="#000002" transform="translate(0,0)"/>
<path d="" fill="#D4D1CC" transform="translate(0,0)"/>
</svg>
